<svg width="189" height="93" viewBox="0 0 189 93" fill="none" xmlns="http://www.w3.org/2000/svg">
<rect y="0.886719" width="21" height="18.2645" fill="#F8E6CB"/>
<rect x="42" y="0.886719" width="21" height="18.2645" fill="#F8E6CB"/>
<rect x="21" y="19.1511" width="21" height="18.2645" fill="#F8E6CB"/>
<rect y="37.4158" width="21" height="18.2645" fill="#F8E6CB"/>
<rect x="42" y="37.4158" width="21" height="18.2645" fill="#F8E6CB"/>
<rect x="21" y="55.6802" width="21" height="18.2645" fill="#F8E6CB"/>
<rect x="63" y="55.6802" width="21" height="18.2645" fill="#F8E6CB"/>
<rect x="105" y="55.6802" width="21" height="18.2645" fill="#F8E6CB"/>
<rect x="63" y="19.1511" width="21" height="18.2645" fill="#F8E6CB"/>
<rect x="105" y="19.1511" width="21" height="18.2645" fill="#F8E6CB"/>
<rect x="84" y="37.4158" width="21" height="18.2645" fill="#F8E6CB"/>
<rect x="126" y="37.4158" width="21" height="18.2645" fill="#F8E6CB"/>
<rect x="168" y="37.4158" width="21" height="18.2645" fill="#F8E6CB"/>
<rect y="73.9446" width="21" height="18.2645" fill="#F8E6CB"/>
<rect x="42" y="73.9446" width="21" height="18.2645" fill="#F8E6CB"/>
<rect x="84" y="73.9446" width="21" height="18.2645" fill="#F8E6CB"/>
<rect x="126" y="73.9446" width="21" height="18.2645" fill="#F8E6CB"/>
<rect x="168" y="73.9446" width="21" height="18.2645" fill="#F8E6CB"/>
<rect x="147" y="55.6802" width="21" height="18.2645" fill="#F8E6CB"/>
<rect x="126" y="0.886719" width="21" height="18.2645" fill="#F8E6CB"/>
<rect x="84" y="0.886719" width="21" height="18.2645" fill="#F8E6CB"/>
<rect x="168" y="0.886719" width="21" height="18.2645" fill="#F8E6CB"/>
<rect x="147" y="19.1511" width="21" height="18.2645" fill="#F8E6CB"/>
</svg>
