<svg width="414" height="906" viewBox="0 0 414 906" fill="none" xmlns="http://www.w3.org/2000/svg">
<path d="M39.1948 64C48.2828 64 54.1708 58.432 54.1708 49.92C54.1708 44.48 51.0988 40.768 46.8748 39.424C50.3308 38.336 53.3388 35.392 53.3388 29.504C53.3388 21.568 47.3228 17.472 38.2348 17.472H4.18675V64H39.1948ZM38.8748 43.776C43.4188 43.776 45.9148 45.952 45.9148 49.792C45.9148 54.336 41.6908 55.936 35.8668 55.936H12.3148V25.6H35.1628C41.1788 25.6 45.0828 26.368 45.0828 31.296C45.0828 35.328 42.9068 36.928 38.2988 36.928H18.2028V43.776H38.8748ZM115.971 64L101.955 49.856C107.971 47.552 111.555 42.112 111.555 34.432C111.555 24.064 105.283 17.472 94.6588 17.472H61.2508V64H69.3148V25.6H94.6588C100.227 25.6 103.555 28.544 103.555 34.56C103.555 40.576 100.483 43.904 94.6588 43.904H75.2668V51.072H92.6748L104.451 64H115.971ZM161.788 64V55.872H128.252V25.6H161.724V17.472H120.188V64H161.788ZM159.996 43.776V36.928H134.204V43.776H159.996ZM227.055 64L200.239 19.456C199.279 17.856 198.127 16.832 196.335 16.832C194.543 16.832 193.327 17.856 192.367 19.456L165.615 64H174.895L196.015 28.288L206.383 45.696H192.111L188.271 52.288H210.287L217.263 64H227.055ZM282.815 64L251.391 40.192L281.855 17.472H269.375L244.735 36.416C243.071 37.696 242.687 38.72 242.687 40.128C242.687 41.408 242.943 42.432 244.351 43.52L270.399 64H282.815ZM240.191 64V17.472H232.063V64H240.191ZM296.639 64V17.472H288.511V64H296.639ZM345.382 62.848C346.534 64 347.75 64.576 349.094 64.576C351.462 64.576 353.126 62.784 353.126 59.712V17.088H345.382V51.136L312.55 18.56C311.334 17.344 310.31 16.896 309.094 16.896C306.534 16.896 304.934 18.752 304.934 21.76V64H312.678V29.952L345.382 62.848ZM410.345 64V36.928H381.161V43.776H402.153V55.872H382.249C373.865 55.872 367.785 49.408 367.785 40.64C367.785 31.808 373.929 25.6 382.249 25.6H407.465V17.472H382.249C369.257 17.472 359.657 26.56 359.657 40.256C359.657 53.76 369.257 64 382.249 64H410.345ZM78.0516 194.02C80.0316 196 82.1216 196.99 84.4316 196.99C88.5016 196.99 91.3616 193.91 91.3616 188.63V115.37H78.0516V173.89L21.6216 117.9C19.5316 115.81 17.7716 115.04 15.6816 115.04C11.2816 115.04 8.53164 118.23 8.53164 123.4V196H21.8416V137.48L78.0516 194.02ZM176.397 196V182.03H118.757V130H176.287V116.03H104.897V196H176.397ZM173.317 161.24V149.47H128.987V161.24H173.317ZM263.494 192.7C265.034 195.67 267.674 197.1 270.644 197.1C273.614 197.1 276.254 195.67 277.904 192.7L319.264 116.03H303.644L271.084 177.52L240.174 116.03H223.344L244.134 155.74L232.034 177.52L199.694 116.03H182.974L224.334 192.7C225.984 195.67 228.514 197.1 231.594 197.1C234.454 197.1 237.204 195.67 238.744 192.7L251.174 169.27L263.494 192.7ZM382.161 196C398.881 196 407.021 185.99 407.021 172.57C407.021 157.06 398.331 149.47 382.161 149.47H345.531C339.371 149.47 335.521 145.84 335.521 139.79C335.521 133.74 339.261 130 345.641 130H403.061V116.03H345.641C329.691 116.03 321.001 125.6 321.001 138.47C321.001 151.67 330.351 161.24 345.421 161.24H382.161C389.641 161.24 393.821 164.76 393.821 171.58C393.821 177.85 389.641 182.03 382.161 182.03H322.211V196H382.161Z" fill="white"/>
<path d="M39.1948 293C48.2828 293 54.1708 287.432 54.1708 278.92C54.1708 273.48 51.0988 269.768 46.8748 268.424C50.3308 267.336 53.3388 264.392 53.3388 258.504C53.3388 250.568 47.3228 246.472 38.2348 246.472H4.18675V293H39.1948ZM38.8748 272.776C43.4188 272.776 45.9148 274.952 45.9148 278.792C45.9148 283.336 41.6908 284.936 35.8668 284.936H12.3148V254.6H35.1628C41.1788 254.6 45.0828 255.368 45.0828 260.296C45.0828 264.328 42.9068 265.928 38.2988 265.928H18.2028V272.776H38.8748ZM115.971 293L101.955 278.856C107.971 276.552 111.555 271.112 111.555 263.432C111.555 253.064 105.283 246.472 94.6588 246.472H61.2508V293H69.3148V254.6H94.6588C100.227 254.6 103.555 257.544 103.555 263.56C103.555 269.576 100.483 272.904 94.6588 272.904H75.2668V280.072H92.6748L104.451 293H115.971ZM161.788 293V284.872H128.252V254.6H161.724V246.472H120.188V293H161.788ZM159.996 272.776V265.928H134.204V272.776H159.996ZM227.055 293L200.239 248.456C199.279 246.856 198.127 245.832 196.335 245.832C194.543 245.832 193.327 246.856 192.367 248.456L165.615 293H174.895L196.015 257.288L206.383 274.696H192.111L188.271 281.288H210.287L217.263 293H227.055ZM282.815 293L251.391 269.192L281.855 246.472H269.375L244.735 265.416C243.071 266.696 242.687 267.72 242.687 269.128C242.687 270.408 242.943 271.432 244.351 272.52L270.399 293H282.815ZM240.191 293V246.472H232.063V293H240.191ZM296.639 293V246.472H288.511V293H296.639ZM345.382 291.848C346.534 293 347.75 293.576 349.094 293.576C351.462 293.576 353.126 291.784 353.126 288.712V246.088H345.382V280.136L312.55 247.56C311.334 246.344 310.31 245.896 309.094 245.896C306.534 245.896 304.934 247.752 304.934 250.76V293H312.678V258.952L345.382 291.848ZM410.345 293V265.928H381.161V272.776H402.153V284.872H382.249C373.865 284.872 367.785 278.408 367.785 269.64C367.785 260.808 373.929 254.6 382.249 254.6H407.465V246.472H382.249C369.257 246.472 359.657 255.56 359.657 269.256C359.657 282.76 369.257 293 382.249 293H410.345ZM78.0516 423.02C80.0316 425 82.1216 425.99 84.4316 425.99C88.5016 425.99 91.3616 422.91 91.3616 417.63V344.37H78.0516V402.89L21.6216 346.9C19.5316 344.81 17.7716 344.04 15.6816 344.04C11.2816 344.04 8.53164 347.23 8.53164 352.4V425H21.8416V366.48L78.0516 423.02ZM176.397 425V411.03H118.757V359H176.287V345.03H104.897V425H176.397ZM173.317 390.24V378.47H128.987V390.24H173.317ZM263.494 421.7C265.034 424.67 267.674 426.1 270.644 426.1C273.614 426.1 276.254 424.67 277.904 421.7L319.264 345.03H303.644L271.084 406.52L240.174 345.03H223.344L244.134 384.74L232.034 406.52L199.694 345.03H182.974L224.334 421.7C225.984 424.67 228.514 426.1 231.594 426.1C234.454 426.1 237.204 424.67 238.744 421.7L251.174 398.27L263.494 421.7ZM382.161 425C398.881 425 407.021 414.99 407.021 401.57C407.021 386.06 398.331 378.47 382.161 378.47H345.531C339.371 378.47 335.521 374.84 335.521 368.79C335.521 362.74 339.261 359 345.641 359H403.061V345.03H345.641C329.691 345.03 321.001 354.6 321.001 367.47C321.001 380.67 330.351 390.24 345.421 390.24H382.161C389.641 390.24 393.821 393.76 393.821 400.58C393.821 406.85 389.641 411.03 382.161 411.03H322.211V425H382.161Z" fill="white"/>
<path d="M39.1948 522C48.2828 522 54.1708 516.432 54.1708 507.92C54.1708 502.48 51.0988 498.768 46.8748 497.424C50.3308 496.336 53.3388 493.392 53.3388 487.504C53.3388 479.568 47.3228 475.472 38.2348 475.472H4.18675V522H39.1948ZM38.8748 501.776C43.4188 501.776 45.9148 503.952 45.9148 507.792C45.9148 512.336 41.6908 513.936 35.8668 513.936H12.3148V483.6H35.1628C41.1788 483.6 45.0828 484.368 45.0828 489.296C45.0828 493.328 42.9068 494.928 38.2988 494.928H18.2028V501.776H38.8748ZM115.971 522L101.955 507.856C107.971 505.552 111.555 500.112 111.555 492.432C111.555 482.064 105.283 475.472 94.6588 475.472H61.2508V522H69.3148V483.6H94.6588C100.227 483.6 103.555 486.544 103.555 492.56C103.555 498.576 100.483 501.904 94.6588 501.904H75.2668V509.072H92.6748L104.451 522H115.971ZM161.788 522V513.872H128.252V483.6H161.724V475.472H120.188V522H161.788ZM159.996 501.776V494.928H134.204V501.776H159.996ZM227.055 522L200.239 477.456C199.279 475.856 198.127 474.832 196.335 474.832C194.543 474.832 193.327 475.856 192.367 477.456L165.615 522H174.895L196.015 486.288L206.383 503.696H192.111L188.271 510.288H210.287L217.263 522H227.055ZM282.815 522L251.391 498.192L281.855 475.472H269.375L244.735 494.416C243.071 495.696 242.687 496.72 242.687 498.128C242.687 499.408 242.943 500.432 244.351 501.52L270.399 522H282.815ZM240.191 522V475.472H232.063V522H240.191ZM296.639 522V475.472H288.511V522H296.639ZM345.382 520.848C346.534 522 347.75 522.576 349.094 522.576C351.462 522.576 353.126 520.784 353.126 517.712V475.088H345.382V509.136L312.55 476.56C311.334 475.344 310.31 474.896 309.094 474.896C306.534 474.896 304.934 476.752 304.934 479.76V522H312.678V487.952L345.382 520.848ZM410.345 522V494.928H381.161V501.776H402.153V513.872H382.249C373.865 513.872 367.785 507.408 367.785 498.64C367.785 489.808 373.929 483.6 382.249 483.6H407.465V475.472H382.249C369.257 475.472 359.657 484.56 359.657 498.256C359.657 511.76 369.257 522 382.249 522H410.345ZM78.0516 652.02C80.0316 654 82.1216 654.99 84.4316 654.99C88.5016 654.99 91.3616 651.91 91.3616 646.63V573.37H78.0516V631.89L21.6216 575.9C19.5316 573.81 17.7716 573.04 15.6816 573.04C11.2816 573.04 8.53164 576.23 8.53164 581.4V654H21.8416V595.48L78.0516 652.02ZM176.397 654V640.03H118.757V588H176.287V574.03H104.897V654H176.397ZM173.317 619.24V607.47H128.987V619.24H173.317ZM263.494 650.7C265.034 653.67 267.674 655.1 270.644 655.1C273.614 655.1 276.254 653.67 277.904 650.7L319.264 574.03H303.644L271.084 635.52L240.174 574.03H223.344L244.134 613.74L232.034 635.52L199.694 574.03H182.974L224.334 650.7C225.984 653.67 228.514 655.1 231.594 655.1C234.454 655.1 237.204 653.67 238.744 650.7L251.174 627.27L263.494 650.7ZM382.161 654C398.881 654 407.021 643.99 407.021 630.57C407.021 615.06 398.331 607.47 382.161 607.47H345.531C339.371 607.47 335.521 603.84 335.521 597.79C335.521 591.74 339.261 588 345.641 588H403.061V574.03H345.641C329.691 574.03 321.001 583.6 321.001 596.47C321.001 609.67 330.351 619.24 345.421 619.24H382.161C389.641 619.24 393.821 622.76 393.821 629.58C393.821 635.85 389.641 640.03 382.161 640.03H322.211V654H382.161Z" fill="white"/>
<path d="M39.1948 751C48.2828 751 54.1708 745.432 54.1708 736.92C54.1708 731.48 51.0988 727.768 46.8748 726.424C50.3308 725.336 53.3388 722.392 53.3388 716.504C53.3388 708.568 47.3228 704.472 38.2348 704.472H4.18675V751H39.1948ZM38.8748 730.776C43.4188 730.776 45.9148 732.952 45.9148 736.792C45.9148 741.336 41.6908 742.936 35.8668 742.936H12.3148V712.6H35.1628C41.1788 712.6 45.0828 713.368 45.0828 718.296C45.0828 722.328 42.9068 723.928 38.2988 723.928H18.2028V730.776H38.8748ZM115.971 751L101.955 736.856C107.971 734.552 111.555 729.112 111.555 721.432C111.555 711.064 105.283 704.472 94.6588 704.472H61.2508V751H69.3148V712.6H94.6588C100.227 712.6 103.555 715.544 103.555 721.56C103.555 727.576 100.483 730.904 94.6588 730.904H75.2668V738.072H92.6748L104.451 751H115.971ZM161.788 751V742.872H128.252V712.6H161.724V704.472H120.188V751H161.788ZM159.996 730.776V723.928H134.204V730.776H159.996ZM227.055 751L200.239 706.456C199.279 704.856 198.127 703.832 196.335 703.832C194.543 703.832 193.327 704.856 192.367 706.456L165.615 751H174.895L196.015 715.288L206.383 732.696H192.111L188.271 739.288H210.287L217.263 751H227.055ZM282.815 751L251.391 727.192L281.855 704.472H269.375L244.735 723.416C243.071 724.696 242.687 725.72 242.687 727.128C242.687 728.408 242.943 729.432 244.351 730.52L270.399 751H282.815ZM240.191 751V704.472H232.063V751H240.191ZM296.639 751V704.472H288.511V751H296.639ZM345.382 749.848C346.534 751 347.75 751.576 349.094 751.576C351.462 751.576 353.126 749.784 353.126 746.712V704.088H345.382V738.136L312.55 705.56C311.334 704.344 310.31 703.896 309.094 703.896C306.534 703.896 304.934 705.752 304.934 708.76V751H312.678V716.952L345.382 749.848ZM410.345 751V723.928H381.161V730.776H402.153V742.872H382.249C373.865 742.872 367.785 736.408 367.785 727.64C367.785 718.808 373.929 712.6 382.249 712.6H407.465V704.472H382.249C369.257 704.472 359.657 713.56 359.657 727.256C359.657 740.76 369.257 751 382.249 751H410.345ZM78.0516 881.02C80.0316 883 82.1216 883.99 84.4316 883.99C88.5016 883.99 91.3616 880.91 91.3616 875.63V802.37H78.0516V860.89L21.6216 804.9C19.5316 802.81 17.7716 802.04 15.6816 802.04C11.2816 802.04 8.53164 805.23 8.53164 810.4V883H21.8416V824.48L78.0516 881.02ZM176.397 883V869.03H118.757V817H176.287V803.03H104.897V883H176.397ZM173.317 848.24V836.47H128.987V848.24H173.317ZM263.494 879.7C265.034 882.67 267.674 884.1 270.644 884.1C273.614 884.1 276.254 882.67 277.904 879.7L319.264 803.03H303.644L271.084 864.52L240.174 803.03H223.344L244.134 842.74L232.034 864.52L199.694 803.03H182.974L224.334 879.7C225.984 882.67 228.514 884.1 231.594 884.1C234.454 884.1 237.204 882.67 238.744 879.7L251.174 856.27L263.494 879.7ZM382.161 883C398.881 883 407.021 872.99 407.021 859.57C407.021 844.06 398.331 836.47 382.161 836.47H345.531C339.371 836.47 335.521 832.84 335.521 826.79C335.521 820.74 339.261 817 345.641 817H403.061V803.03H345.641C329.691 803.03 321.001 812.6 321.001 825.47C321.001 838.67 330.351 848.24 345.421 848.24H382.161C389.641 848.24 393.821 851.76 393.821 858.58C393.821 864.85 389.641 869.03 382.161 869.03H322.211V883H382.161Z" fill="white"/>
</svg>
