<svg width="182" height="285" viewBox="0 0 182 285" fill="none" xmlns="http://www.w3.org/2000/svg">
<path d="M71.6261 109.505C70.2652 108.533 73.0017 100.547 73.1822 99.7707C74.8438 92.6207 76.6464 85.5013 78.91 78.5148C82.3879 67.7808 86.626 57.1957 91.2928 46.929" stroke="#F8E6CB" stroke-width="6.37215" stroke-linecap="round"/>
<path d="M46 35.6055C73.7953 40.0274 102.033 40.9917 130.13 41.5651C141.43 41.7957 152.696 42.757 164 42.757" stroke="#F8E6CB" stroke-width="6.37215" stroke-linecap="round"/>
<path d="M136.586 6.99941C131.902 9.71106 127.769 16.6428 128.11 22.0971C128.251 24.359 131.575 25.463 133.473 25.9377C136.776 26.7632 141.527 24.1778 144.532 23.1234C148.22 21.8292 153.244 20.3155 155.491 16.8327C157.808 13.2416 155.095 6.19868 151.22 4.64868C146.86 2.90485 141.152 5.01427 137.182 6.99941" stroke="#F8E6CB" stroke-width="6.37215" stroke-linecap="round"/>
<path d="M133.01 58.2524C131.704 72.4533 132.492 86.7154 133.474 100.897C133.834 106.102 134.934 114.076 131.785 118.643C129.236 122.339 124.795 123.239 120.561 123.113C114.52 122.932 106.339 122.392 100.828 119.636" stroke="#F8E6CB" stroke-width="6.37215" stroke-linecap="round"/>
<path d="M3 232.287C11.4094 232.287 19.3769 231.907 27.7043 230.64" stroke="#F8E6CB" stroke-width="4.40242" stroke-linecap="round"/>
<path d="M37.9977 203.877C38.3327 204.994 40.4185 206.114 41.2917 206.76C43.5709 208.444 45.9009 209.374 48.4742 210.465C53.3436 212.531 57.7945 212.524 63.0223 212.524C72.5481 212.524 82.31 212.201 91.6153 210.054C93.2137 209.685 95.1991 209.524 96.6934 208.818C97.912 208.243 98.9481 207.407 100.33 207.194C100.987 207.093 102.376 219.606 102.549 221.353C103.17 227.628 103.876 233.814 103.876 240.11" stroke="#F8E6CB" stroke-width="4.40242" stroke-linecap="round"/>
<path d="M60.6434 227.758C60.6434 238.872 62.7021 249.849 62.7021 260.903C62.7021 262.063 62.929 263.485 62.6793 264.609C61.9424 267.924 62.7173 267.832 66.4078 267.285C73.8513 266.182 81.3668 266.359 88.7789 264.998C94.4109 263.963 100.596 263.451 106.324 263.19C111.107 262.973 115.729 262.344 120.551 262.344C123.914 262.344 127.277 262.344 130.639 262.344" stroke="#F8E6CB" stroke-width="4.40242" stroke-linecap="round"/>
<path d="M77.9364 227.347C75.3359 230.852 72.4631 232.191 73.0412 236.817C73.4005 239.69 76.2524 244.587 79.0801 245.783C82.2524 247.125 84.9707 244.33 87.4979 242.581C89.3482 241.3 90.7003 240.653 90.7003 238.258C90.7003 236.184 91.4005 232.837 90.2885 230.961C88.6957 228.273 87.7508 226.935 84.5242 226.935" stroke="#F8E6CB" stroke-width="4.40242" stroke-linecap="round"/>
<path d="M114.169 203.053C120.795 203.053 127.402 202.642 134.024 202.642C135.204 202.642 142.019 201.329 142.923 202.459C144.566 204.513 143.38 210.716 143.426 213.164C143.521 218.254 143.693 223.425 144.226 228.49C145.079 236.592 145.873 244.433 145.873 252.599C145.873 260.951 147.127 273.326 138.439 278.356C133.16 281.412 127.942 282.474 121.855 282.519C118.651 282.543 115.595 282.392 112.431 281.901C111.306 281.727 107.697 281.926 107.17 280.872" stroke="#F8E6CB" stroke-width="4.40242" stroke-linecap="round"/>
<path d="M154.932 204.701C154.821 220.243 154.206 235.421 156.487 250.815C156.802 252.943 156.579 255.225 156.579 257.38C156.579 259.941 156.804 259.779 159.461 259.37C166.186 258.336 172.597 259.874 179.224 259.874" stroke="#F8E6CB" stroke-width="4.40242" stroke-linecap="round"/>
</svg>
