<svg width="47" height="59" viewBox="0 0 47 59" fill="none" xmlns="http://www.w3.org/2000/svg">
<path d="M1.79175 5.9491C2.41751 7.737 3.68153 9.54127 4.73566 11.1036C6.57671 13.8323 8.83281 16.3678 11.2166 18.6306C13.6941 20.9823 16.6543 22.3554 19.8434 23.4185" stroke="#F8E6CB" stroke-width="3" stroke-linecap="round"/>
<path d="M32.8483 2.26111C35.0626 13.6486 35.2811 25.7072 28.4918 35.6902C24.0111 42.2785 17.2172 47.1842 10.893 51.8655C8.41302 53.7012 5.67749 55.9052 2.76221 56.9985" stroke="#F8E6CB" stroke-width="3" stroke-linecap="round"/>
<path d="M45.077 17.2071C44.9803 21.4581 44.4332 25.5152 43.0712 29.5543C41.9348 32.9244 40.6085 36.2495 38.7254 39.281C35.9454 43.7566 32.4811 47.6749 28.9663 51.5635" stroke="#F8E6CB" stroke-width="3" stroke-linecap="round"/>
</svg>
