<svg width="115" height="70" viewBox="0 0 115 70" fill="none" xmlns="http://www.w3.org/2000/svg">
<path d="M7.6427 18.1755C15.2395 18.4621 22.7974 19.2619 30.4221 19.304C37.8572 19.3451 45.2678 18.9278 52.6999 18.9278C59.1227 18.9278 65.5455 18.9278 71.9684 18.9278" stroke="#F8E6CB" stroke-width="3" stroke-linecap="round"/>
<path d="M58.4261 2.75238C57.1638 3.96615 54.2174 6.71111 56.169 8.77116C58.6894 11.4315 60.5784 10.7615 63.1283 8.60397C63.8781 7.96951 66.8186 4.68513 65.0091 3.8809C63.4071 3.16891 62.0583 3.12855 60.307 3.12855" stroke="#F8E6CB" stroke-width="3" stroke-linecap="round"/>
<path d="M31.3416 5.38557C30.8973 5.05237 30.9654 9.20513 30.9654 9.89965" stroke="#F8E6CB" stroke-width="3" stroke-linecap="round"/>
<path d="M44.5077 2V12.5329" stroke="#F8E6CB" stroke-width="3" stroke-linecap="round"/>
<path d="M32.8462 30.213C33.5934 35.4436 33.6258 40.5635 33.5986 45.8451C33.5627 52.811 32.7356 57.3946 25.7825 60.286C19.4948 62.9007 13.0497 64.4448 6.2424 64.4448C4.80311 64.4448 2.52627 64.1427 2 62.5639" stroke="#F8E6CB" stroke-width="3" stroke-linecap="round"/>
<path d="M65.1972 30.5892C60.9842 30.5892 56.7861 30.2411 52.5745 30.213C51.4496 30.2055 44.8129 29.397 44.2987 30.631C43.2559 33.1337 44.1315 37.5989 44.1315 40.2861C44.1315 42.4823 43.8583 44.6023 43.7553 46.7647C43.6388 49.2121 44.9574 47.3641 46.6393 47.6006C49.8642 48.0541 53.0163 48.1018 56.2527 48.3529C57.8605 48.4777 59.4516 49.0217 61.0593 49.0217" stroke="#F8E6CB" stroke-width="3" stroke-linecap="round"/>
<path d="M45.26 54.2881C45.26 58.0515 44.5077 61.7878 44.5077 65.5733" stroke="#F8E6CB" stroke-width="3" stroke-linecap="round"/>
<path d="M67.4542 41.4982C74.384 41.4982 81.2461 42.2506 88.1438 42.2506" stroke="#F8E6CB" stroke-width="3" stroke-linecap="round"/>
<path d="M88.5199 16.2946C91.0798 18.5986 95.1519 18.6494 98.2586 19.5966C100.64 20.3226 103.31 20.691 105.824 20.4116C107.457 20.2302 109.314 19.7308 110.881 19.2831C111.807 19.0188 112.497 18.0828 113.347 17.7993" stroke="#F8E6CB" stroke-width="3" stroke-linecap="round"/>
<path d="M103.943 24.5704C103.943 28.8375 103.955 33.3425 104.716 37.5275C104.941 38.7626 105.399 39.713 105.448 41.0385C105.487 42.0929 105.881 44.158 106.388 45.0719C107.342 46.7879 107.113 49.1332 107.997 50.9026C109.054 53.0161 110.167 54.9726 111.467 56.9214" stroke="#F8E6CB" stroke-width="3" stroke-linecap="round"/>
<path d="M101.31 50.5264C101.105 56.0505 96.0118 60.1823 91.9055 63.2327C89.5412 64.989 86.7621 67.2878 84.0059 68.2065" stroke="#F8E6CB" stroke-width="3" stroke-linecap="round"/>
</svg>
